<svg id="Layer_1" data-name="Layer 1" xmlns="http://www.w3.org/2000/svg" viewBox="0 0 654.33 99.95"><defs><style>.cls-1{fill:#fff;}</style></defs><title>Max Harris Logo White</title><path class="cls-1" d="M264.23,2.4H235.77l-17.23,29-17.36-29H172.31l31.4,44L182,76.68,154,2.4H129.38L103.81,71.61V2.4H69.33L52,73.09H51.7L34.86,2.4H0V97.53H21.64V23.65h.27L41.28,97.53h21L81.09,23.65h.26V97.53h38.28l4.81-15h35.14l4.8,15h31.45L218.41,62l21.91,35.53h29.13L233,46.37ZM130.05,64.94,141.8,25.65h.27l11.76,39.29Z"/><path class="cls-1" d="M494.31,28.86c0-13.36-8.15-26.46-27.79-26.46H424.44v78L394.2,2.4h-7.36L356.35,77.28V2.4h-9.09v42H290.34V2.4h-9.08V97.53h9.08V52.65h56.92V97.53h10.2l11.35-28.59h41.82l10.69,28.59h12.19V55.32h21.65l30.21,42.21h11.48L466.39,54.92C483.62,53.71,494.31,45.16,494.31,28.86ZM371.88,61.46l18.18-46.89,17.63,46.89ZM433.51,47V10.69h29.67c16.17,0,22,7.08,22,18.17C485.22,37.28,481,47,461.71,47Z"/><path class="cls-1" d="M568,28.86c0-13.36-8.15-26.46-27.8-26.46H498.09V97.53h9.09V55.32h21.64L559,97.53h11.49L540,54.92C557.28,53.71,568,45.16,568,28.86ZM507.18,47V10.69h29.67c16.16,0,22,7.08,22,18.17,0,8.42-4.28,18.17-23.52,18.17Z"/><rect class="cls-1" x="572.02" y="2.4" width="9.08" height="95.13"/><path class="cls-1" d="M597.55,24.18c0-10.42,11.49-15.9,21.24-15.9,11.9,0,21.65,5.09,25.52,17.51l8.42-4.54C647.25,5.34,635,0,618.79,0c-13.36,0-30.33,6.82-30.33,24.18,0,37.15,56.79,19,56.79,48.11,0,11.62-11.1,19.37-26.06,19.37-15.76,0-25.92-6.68-26.72-22.72l-9.08,4.68c3.47,19.23,16.7,26.33,35.8,26.33,22,0,35.14-10.43,35.14-29.14C654.33,34.2,597.55,52.38,597.55,24.18Z"/></svg>