<?xml version="1.0" encoding="utf-8"?>
<!-- Generator: Adobe Illustrator 22.1.0, SVG Export Plug-In . SVG Version: 6.00 Build 0)  -->
<svg version="1.1" id="Layer_1" xmlns="http://www.w3.org/2000/svg" xmlns:xlink="http://www.w3.org/1999/xlink" x="0px" y="0px"
	 viewBox="0 0 655.8 100" style="enable-background:new 0 0 655.8 100;" xml:space="preserve">
<style type="text/css">
	.st0{fill:#00A0EE;}
</style>
<g>
	<path class="st0" d="M264.2,2.4h-28.5l-17.2,29l-17.4-29h-28.9l31.4,44L182,76.7L154,2.4h-24.6l-25.6,69.2V2.4H69.3L52,73.1h-0.3
		L34.9,2.4H0v95.1h21.6V23.6h0.3l19.4,73.9h21l18.8-73.9h0.3v73.9h12.9h9.6h15.8l4.8-15h35.1l4.8,15h2.7h22.8h5.9L218.4,62
		l21.9,35.5h29.1L233,46.4L264.2,2.4z M130.1,64.9l11.7-39.3h0.3l11.8,39.3H130.1z"/>
	<path d="M494.3,28.9c0-13.4-8.1-26.5-27.8-26.5h-42.1v78l-30.2-78h-7.4l-30.5,74.9V2.4h-9.1v42h-56.9v-42h-9.1v95.1h9.1V52.6h56.9
		v44.9h0.8h8.2h1.1l11.3-28.6h41.8l10.7,28.6h3.1h6.6h2.4V55.3h21.7l30.2,42.2h11.5l-30.5-42.6C483.6,53.7,494.3,45.2,494.3,28.9z
		 M371.9,61.4l18.2-46.9l17.6,46.9H371.9z M433.5,47V10.7h29.7c16.2,0,22,7.1,22,18.2c0,8.4-4.3,18.2-23.5,18.2h-28.2V47z"/>
	<path d="M568,28.9c0-13.4-8.1-26.5-27.8-26.5h-42.1v95.1h9.1V55.3h21.6L559,97.5h11.5L540,54.9C557.3,53.7,568,45.2,568,28.9z
		 M507.2,47V10.7h29.7c16.2,0,22,7.1,22,18.2c0,8.4-4.3,18.2-23.5,18.2h-28.2V47z"/>
	<rect x="572" y="2.4" width="9.1" height="95.1"/>
	<path d="M597.6,24.2c0-10.4,11.5-15.9,21.2-15.9c11.9,0,21.7,5.1,25.5,17.5l8.4-4.5C647.2,5.3,635,0,618.8,0
		c-13.4,0-30.3,6.8-30.3,24.2c0,37.1,56.8,19,56.8,48.1c0,11.6-11.1,19.4-26.1,19.4c-15.8,0-25.9-6.7-26.7-22.7l-9.1,4.7
		c3.5,19.2,16.7,26.3,35.8,26.3c22.1,0,35.1-10.4,35.1-29.1C654.3,34.2,597.6,52.4,597.6,24.2z"/>
</g>
</svg>
